<svg xmlns="http://www.w3.org/2000/svg" viewBox="0 0 1200 800"><defs><linearGradient id="g" x1="0" x2="1" y1="0" y2="1"><stop offset="0%" stop-color="#09101a"/><stop offset="100%" stop-color="#0f172a"/></linearGradient></defs><rect width="1200" height="800" fill="url(#g)"/><circle cx="260" cy="200" r="180" fill="#38bdf8" opacity="0.15"/><circle cx="920" cy="260" r="220" fill="#a855f7" opacity="0.12"/><rect x="220" y="280" width="760" height="360" rx="48" fill="#0c1724" stroke="#38bdf8" stroke-width="8"/><path d="M420 400h360" stroke="#fff" stroke-width="22" stroke-linecap="round"/><path d="M420 480h520" stroke="#a855f7" stroke-width="18" stroke-linecap="round"/><rect x="420" y="540" width="520" height="24" rx="12" fill="#38bdf8"/><circle cx="380" cy="400" r="18" fill="#fff"/><circle cx="380" cy="460" r="18" fill="#fff"/><path d="M760 530c40 0 80 20 90 50 10 30 -10 60 -40 70l-290 90c-30 10 -70 -5 -90 -35l-40 -60c-20 -30 -10 -70 20 -90 30 -20 70 -15 95 5" fill="#08101e" opacity="0.95"/></svg>